<?xml version="1.0" encoding="utf-8"?>
<!-- Generator: Adobe Illustrator 15.1.0, SVG Export Plug-In . SVG Version: 6.00 Build 0)  -->
<!DOCTYPE svg PUBLIC "-//W3C//DTD SVG 1.1//EN" "http://www.w3.org/Graphics/SVG/1.1/DTD/svg11.dtd">
<svg version="1.1" xmlns="http://www.w3.org/2000/svg" xmlns:xlink="http://www.w3.org/1999/xlink" x="0px" y="0px"
	 width="273.73px" height="104.673px" viewBox="0 0 273.73 104.673" enable-background="new 0 0 273.73 104.673"
	 xml:space="preserve">
<g id="Livello_2">
</g>
<g id="Livello_1">
	<g>
		<g>
			
				<image overflow="visible" opacity="0.5" width="1157" height="457" xlink:href="2DED60FB.png"  transform="matrix(0.24 0 0 0.24 1.4277 0.0298)">
			</image>
			<g>
				<path fill="#009640" d="M217.214,87.627c-13.131,0-25.528-6.75-32.918-17.768l-170.62-0.137
					c-2.348-0.002-4.25-1.907-4.249-4.255c0.002-2.347,1.905-4.249,4.252-4.249c0.001,0,0.002,0,0.003,0l172.967,0.139
					c1.51,0.001,2.905,0.802,3.667,2.105c5.737,9.806,15.792,15.661,26.896,15.661c17.257,0,31.296-14.039,31.296-31.295
					s-14.039-31.294-31.296-31.294c-11.126,0-21.516,6.134-27.115,16.008c-1.157,2.042-3.752,2.758-5.796,1.601
					c-2.043-1.159-2.76-3.753-1.601-5.796c7.106-12.532,20.331-20.317,34.512-20.317c21.945,0,39.8,17.854,39.8,39.798
					C257.014,69.773,239.159,87.627,217.214,87.627z"/>
			</g>
		</g>
		<polygon fill="#9D9D9C" points="204.522,58.962 197.072,58.962 188.497,49.192 185.799,51.424 185.799,58.962 180.007,58.962 
			180.007,36.692 185.799,36.692 185.799,45.748 196.377,36.692 203.861,36.692 192.552,45.81 		"/>
		<path fill="#9D9D9C" d="M227.488,55.021v3.941h-21.035v-22.27c0,0,5.096,0,10.192,0c5.096,0,4.19,0,4.19,0v3.94h-8.712v4.682
			h13.509v3.94h-13.509v5.766H227.488z"/>
		<path fill="#9D9D9C" d="M237.425,58.96h-5.79v-8.403l-7.573-13.861h5.833l4.751,9.675l4.481-9.675h5.563l-7.265,13.924V58.96z"/>
		<rect x="30.851" y="36.697" width="5.792" height="22.263"/>
		<path d="M60.188,47.549V58.96h-5.405V48.943c0-1.208-0.077-3.259-3.515-3.259c-2.389,0-4.245,1.306-4.245,3.818v9.457h-5.404
			V42.461h5.173v2.417h0.077c0.738-0.988,2.277-2.851,6.179-2.851C57.06,42.027,60.188,43.918,60.188,47.549z"/>
		<path d="M71.263,42.462h3.359v3.102h-3.359v8.962c0,0.961,0.039,1.333,2.239,1.333c0.348,0,0.733-0.03,1.12-0.063v3.287
			c-0.85,0.032-1.699,0.063-2.549,0.063h-0.694c-4.671,0-5.521-1.426-5.521-3.565V45.563h-2.779v-3.102h2.779v-4.465h5.404V42.462z"
			/>
		<path d="M95.697,54.123c-1.428,3.969-5.521,5.271-9.033,5.271c-5.79,0-10.229-2.232-10.229-9.023c0-1.984,0.85-8.342,9.844-8.342
			c4.053,0,9.65,1.55,9.65,9.086v0.776h-14.09c0.154,1.239,0.464,4.03,4.825,4.03c1.506,0,3.05-0.619,3.475-1.798H95.697z
			 M90.37,49.068c-0.309-2.668-2.432-3.474-4.169-3.474c-2.547,0-3.898,1.303-4.208,3.474H90.37z"/>
		<path d="M118.355,42.462v15.63c0,2.854-0.271,7.598-10.385,7.598c-4.246,0-8.724-0.909-8.956-4.413h5.868
			c0.231,0.838,0.656,1.125,3.783,1.125c2.896,0,4.284-1.116,4.284-3.784v-1.983l-0.076-0.063c-0.888,1.272-2.239,2.481-5.482,2.481
			c-4.941,0-8.84-2.76-8.84-8.528c0-5.706,4.016-8.497,8.531-8.497c3.822,0,5.366,1.799,6.021,2.884h0.078v-2.45H118.355z
			 M108.396,55.394c3.668,0,4.594-2.512,4.594-4.774c0-2.668-1.621-4.838-4.633-4.838c-2.007,0-4.245,1.179-4.245,5.023
			C104.111,52.913,105.191,55.394,108.396,55.394z"/>
		<path d="M123.062,42.462h5.173v2.854h0.077c1.119-1.676,2.354-3.288,5.637-3.288c0.347,0,0.693,0.031,1.041,0.062v4.404
			c-0.463-0.062-1.041-0.062-1.544-0.062c-4.207,0-4.979,2.107-4.979,3.938v8.59h-5.405V42.462z"/>
		<path d="M143.673,40.509h-5.404v-4.031h5.404V40.509z M143.673,42.462V58.96h-5.404V42.462H143.673z"/>
		<path d="M154.906,42.462h3.357v3.102h-3.357v8.962c0,0.961,0.038,1.333,2.238,1.333c0.347,0,0.733-0.03,1.119-0.063v3.287
			c-0.849,0.032-1.698,0.063-2.547,0.063h-0.695c-4.671,0-5.521-1.426-5.521-3.565V45.563h-2.779v-3.102h2.779v-4.465h5.405V42.462z
			"/>
		<path d="M172.932,58.681c-2.549,6.109-3.242,6.916-7.952,6.916c-0.733,0-1.66-0.031-2.433-0.063v-3.474
			c0.232,0.031,0.579,0.063,1.043,0.063c1.969,0,3.05-0.219,3.551-2.481l-7.565-17.181h5.021l5.4,12.156h0.077l5.208-12.156h4.713
			L172.932,58.681z"/>
	</g>
</g>
<g id="Livello_3">
</g>
</svg>
